<?xml version="1.0" encoding="utf-8"?>
<!-- Generator: Adobe Illustrator 19.0.0, SVG Export Plug-In . SVG Version: 6.00 Build 0)  -->
<svg version="1.1" id="Layer_1" xmlns="http://www.w3.org/2000/svg" xmlns:xlink="http://www.w3.org/1999/xlink" x="0px" y="0px"
	 viewBox="0 0 96 96" style="enable-background:new 0 0 96 96;" xml:space="preserve">
<style type="text/css">
	.st0{fill:#333333;}
</style>
<g id="XMLID_2_">
	<path id="XMLID_7_" class="st0" d="M48,18c-3.7,0-7,3-7,6.7v28.5c-4,2.3-6.3,6.6-6.3,11.5C34.7,72,40.6,78,48,78
		c7.4,0,13.3-6,13.3-13.3c0-4.9-2.3-9.2-6.3-11.5V24.7C55,21,51.7,18,48,18z M48,21.3c1.9,0,3.3,1.4,3.3,3.3v28.5V55l1.7,1
		c3,1.7,5,4.9,5,8.6c0,5.6-4.4,10-10,10c-5.6,0-10-4.4-10-10c0-3.7,2-6.9,5-8.6l1.7-1v-1.9V24.7C44.7,22.8,46.1,21.3,48,21.3z
		 M41.3,65c0,3.7,3,6.7,6.7,6.7c3.7,0,6.7-3,6.7-6.7H41.3z"/>
</g>
</svg>
